<?xml version="1.0" standalone="no"?>
<!DOCTYPE svg PUBLIC "-//W3C//DTD SVG 20010904//EN"
 "http://www.w3.org/TR/2001/REC-SVG-20010904/DTD/svg10.dtd">
<svg version="1.0" xmlns="http://www.w3.org/2000/svg"
 width="260.000000pt" height="260.000000pt" viewBox="0 0 260.000000 260.000000"
 preserveAspectRatio="xMidYMid meet">
<metadata>
Created by potrace 1.11, written by Peter Selinger 2001-2013
</metadata>
<g transform="translate(0.000000,260.000000) scale(0.100000,-0.100000)"
fill="#000000" stroke="none">
<path d="M629 2561 c6 -10 7 -21 4 -25 -3 -3 -1 -6 6 -6 7 0 9 -4 6 -10 -3 -5
-1 -10 5 -10 6 0 8 -4 5 -10 -3 -5 -1 -10 6 -10 7 0 10 -3 6 -6 -3 -4 0 -19 8
-35 18 -34 19 -59 2 -59 -6 0 -18 -14 -25 -30 -8 -17 -17 -28 -22 -25 -5 3 -7
-3 -5 -12 1 -10 -2 -26 -7 -35 -6 -13 -5 -18 4 -18 9 0 9 -3 -2 -10 -8 -5 -10
-10 -4 -10 6 0 11 -6 12 -12 3 -34 10 -52 25 -63 9 -7 17 -18 17 -24 0 -7 4
-10 8 -7 4 2 14 1 22 -5 10 -6 11 -9 3 -9 -7 0 -13 -6 -13 -14 0 -7 -7 -19
-15 -26 -8 -7 -15 -26 -15 -42 0 -16 -4 -27 -9 -23 -6 3 -13 -11 -17 -32 -4
-21 -11 -46 -16 -55 -6 -13 -5 -18 4 -18 9 -1 8 -3 -2 -9 -12 -7 -15 -29 -14
-101 2 -93 11 -116 42 -105 6 2 12 0 12 -5 0 -5 9 -7 19 -5 14 2 18 -1 14 -11
-3 -7 -10 -11 -16 -7 -6 4 -7 1 -1 -8 12 -19 14 -39 4 -39 -5 0 -7 -11 -5 -25
1 -14 -2 -25 -7 -25 -5 0 -4 -10 3 -21 8 -15 8 -19 0 -15 -7 5 -11 -3 -11 -19
0 -18 -4 -24 -12 -19 -9 5 -9 2 1 -9 9 -11 10 -17 2 -17 -6 0 -11 -5 -11 -11
0 -5 6 -7 13 -3 6 4 4 -1 -5 -12 -12 -13 -14 -24 -7 -36 6 -11 6 -19 -1 -23
-6 -4 -8 -11 -5 -16 4 -5 2 -9 -2 -9 -5 0 -8 -12 -8 -27 1 -16 -1 -32 -4 -38
-11 -21 -11 -48 1 -63 8 -10 9 -13 1 -9 -8 5 -12 -10 -15 -48 -1 -30 0 -55 3
-55 3 0 4 -12 1 -26 -3 -16 -1 -25 5 -21 5 3 10 0 10 -8 0 -8 -4 -12 -8 -9 -4
2 -7 -5 -6 -16 1 -11 5 -20 10 -20 5 0 7 -9 4 -20 -3 -11 -1 -23 4 -26 5 -3 7
-9 4 -14 -3 -5 -1 -11 5 -15 6 -4 8 -11 5 -16 -4 -5 -1 -9 5 -9 7 0 10 -7 6
-15 -3 -8 -1 -15 4 -15 6 0 10 -6 10 -14 0 -8 7 -16 15 -20 9 -3 12 -12 8 -23
-3 -10 -3 -15 1 -11 10 8 47 -23 40 -34 -3 -4 4 -8 16 -8 12 0 19 -3 17 -7 -4
-8 26 -41 41 -45 4 -2 6 -7 4 -11 -1 -5 2 -6 7 -3 5 3 14 -1 21 -9 7 -8 16
-12 21 -10 4 3 17 -3 29 -15 11 -11 29 -20 41 -20 11 0 17 -4 14 -10 -3 -5 1
-11 9 -11 24 -2 29 -4 53 -17 12 -7 26 -11 30 -11 12 3 47 -13 55 -25 5 -7 8
-6 8 3 0 11 3 11 15 1 8 -7 15 -9 15 -6 0 4 6 1 14 -6 10 -9 11 -15 2 -20 -14
-9 -15 -29 -3 -45 6 -9 5 -13 -3 -13 -9 0 -8 -5 3 -18 10 -10 14 -22 10 -27
-5 -4 -3 -5 3 -2 13 7 47 -26 37 -36 -3 -4 -1 -7 7 -7 9 0 10 -3 1 -13 -6 -8
-9 -16 -7 -18 2 -2 -6 -13 -17 -24 -11 -11 -16 -13 -12 -5 6 12 5 13 -6 3 -16
-16 -33 -17 -23 -1 5 7 3 8 -7 2 -18 -11 -32 -13 -106 -16 -35 -2 -63 -6 -63
-9 0 -3 -6 -6 -12 -7 -7 -1 -29 -4 -48 -7 -19 -3 -41 -6 -47 -7 -7 -1 -13 -5
-13 -9 0 -4 -9 -6 -21 -4 -14 3 -19 0 -16 -9 4 -9 -2 -12 -19 -8 -14 2 -24 0
-24 -7 0 -7 -4 -10 -9 -7 -5 3 -11 -1 -15 -9 -3 -8 -12 -15 -20 -15 -8 0 -18
-5 -22 -12 -5 -7 -3 -8 6 -3 10 6 11 4 4 -6 -12 -18 -14 -80 -3 -73 5 3 9 0 9
-6 0 -17 30 -45 30 -28 0 8 4 7 11 -4 5 -10 17 -18 24 -18 8 0 15 -4 15 -8 0
-5 10 -8 23 -7 12 1 30 -5 40 -13 13 -12 17 -12 17 -2 0 9 5 7 16 -6 8 -10 13
-14 10 -8 -4 8 3 11 18 10 13 0 22 -4 19 -9 -2 -4 11 -7 29 -7 19 0 40 -6 47
-12 11 -10 13 -10 7 -1 -9 16 6 17 22 1 8 -8 15 -8 28 3 15 12 17 12 9 0 -6
-11 -4 -13 7 -8 9 3 19 3 22 -1 4 -3 24 -5 46 -5 22 0 40 -4 40 -9 0 -5 6 -6
12 -2 19 12 48 12 48 0 0 -5 7 -1 16 10 8 10 13 13 9 6 -5 -9 2 -12 28 -9 20
2 41 0 49 -4 7 -5 20 -1 32 9 11 9 16 11 12 5 -5 -9 0 -13 14 -13 12 0 19 4
15 9 -3 6 6 7 23 2 16 -5 36 -5 45 0 10 6 18 5 22 -2 5 -7 14 -4 28 8 14 12
18 13 12 3 -8 -13 -7 -13 8 -1 14 11 17 11 17 0 0 -9 3 -10 8 -4 7 10 22 15
57 19 12 1 26 6 33 10 7 4 12 2 12 -6 0 -10 2 -10 9 1 5 8 16 11 25 8 9 -4 16
-2 16 4 0 6 4 8 9 4 5 -3 12 -1 15 4 3 5 21 12 39 15 18 3 43 15 55 26 12 11
26 20 31 20 6 0 8 7 5 15 -4 8 -1 15 4 15 6 0 10 9 9 20 -1 11 -5 20 -9 20 -4
0 -5 6 -2 14 6 15 -43 59 -57 50 -5 -3 -9 0 -9 5 0 6 -9 11 -19 11 -11 0 -23
5 -26 11 -4 5 -12 8 -18 6 -7 -2 -21 3 -31 12 -14 11 -17 12 -11 2 6 -10 4
-12 -6 -5 -8 5 -22 7 -31 6 -10 -2 -18 1 -18 6 0 5 -18 9 -39 8 -22 -1 -38 1
-35 5 2 4 -9 7 -24 7 -106 3 -112 4 -105 15 5 9 3 9 -8 0 -12 -10 -18 -10 -29
0 -10 10 -11 9 -5 -2 5 -9 4 -12 -3 -7 -7 4 -12 14 -12 22 0 8 -5 14 -10 14
-21 0 -4 46 29 77 18 18 30 37 26 43 -3 5 -1 19 6 31 6 12 7 19 1 15 -5 -3
-12 5 -14 19 -5 22 -2 24 23 21 16 -2 29 0 29 4 0 7 49 21 66 19 4 0 10 4 13
10 4 6 18 12 31 13 14 2 31 9 38 16 7 6 20 12 28 12 8 0 14 3 14 8 0 11 52 32
64 25 6 -3 8 -2 3 2 -4 5 11 20 33 35 22 15 37 30 33 33 -3 4 -1 7 5 7 7 0 21
9 32 20 11 11 18 20 15 20 -3 0 3 8 13 18 9 11 20 17 24 15 4 -2 5 2 3 10 -3
7 3 22 15 32 11 10 20 29 20 42 0 12 6 23 13 23 8 0 7 4 -3 10 -12 7 -12 10
-1 10 7 0 11 6 7 15 -3 8 -1 15 5 15 6 0 9 6 6 13 -2 6 0 20 5 30 6 12 5 17
-4 17 -8 0 -9 3 -3 8 13 9 14 162 1 162 -6 0 -5 5 1 11 8 8 8 20 2 36 -5 13
-8 27 -8 31 1 4 1 22 0 40 -1 24 -5 31 -13 26 -10 -6 -10 -4 0 8 8 10 9 17 3
20 -6 1 -12 24 -13 50 -2 27 -7 48 -11 48 -5 0 -5 9 -2 20 4 13 2 20 -7 20
-11 0 -11 2 0 9 10 6 10 10 -3 21 -12 10 -13 16 -4 26 6 8 7 14 2 14 -5 0 -10
6 -10 13 -2 32 -12 132 -14 135 -1 1 -2 6 -3 11 0 5 -4 13 -8 17 -4 4 -3 13 3
21 7 8 8 13 1 13 -5 0 -8 14 -7 30 1 17 -2 33 -7 36 -5 3 -4 12 3 20 6 8 7 14
2 14 -6 0 -11 28 -13 63 -2 34 -3 72 -4 84 -1 11 -4 19 -8 16 -5 -2 -8 1 -8 6
0 6 -7 11 -15 11 -8 0 -15 4 -15 9 0 11 -56 21 -142 24 -53 2 -64 5 -55 15 6
7 6 12 1 11 -26 -5 -36 1 -25 14 6 8 8 17 4 20 -3 4 -1 7 6 7 7 0 9 4 6 10
-11 18 39 90 62 90 7 0 13 4 13 10 0 5 7 7 15 4 8 -4 15 -2 15 4 0 6 9 8 21 5
12 -4 25 0 30 8 7 12 9 12 9 0 0 -10 4 -11 13 -3 6 5 28 12 47 13 19 2 38 8
42 14 5 6 8 6 8 -2 0 -9 7 -10 24 -3 13 5 27 6 30 3 3 -4 6 -1 6 7 0 10 3 10
15 0 13 -11 14 -10 9 5 -6 15 -4 16 12 7 11 -6 26 -7 34 -2 12 6 73 17 113 19
5 1 6 5 3 10 -4 5 -1 11 5 13 19 6 1 45 -23 52 -13 3 -26 0 -30 -7 -6 -9 -8
-8 -8 2 0 11 -4 11 -18 -2 -10 -10 -21 -15 -24 -12 -10 10 -49 14 -43 4 4 -5
-8 -10 -24 -10 -40 -2 -43 -3 -60 -13 -11 -7 -12 -6 -6 5 7 11 6 12 -6 2 -8
-7 -33 -14 -54 -17 -22 -2 -42 -5 -45 -6 -3 -1 -16 -1 -29 0 -13 1 -21 -3 -17
-8 3 -5 -9 -10 -27 -10 -67 0 -78 -2 -72 -12 3 -6 -1 -7 -9 -4 -10 4 -16 1
-16 -7 0 -7 -3 -10 -6 -6 -8 8 -44 -25 -44 -41 0 -7 -4 -10 -10 -7 -5 3 -10
-1 -10 -9 0 -9 -6 -16 -12 -16 -10 0 -10 -2 0 -9 11 -6 10 -10 -3 -15 -9 -3
-15 -12 -12 -20 3 -7 0 -19 -6 -25 -6 -6 -7 -11 -3 -11 5 0 2 -8 -5 -17 -9
-11 -10 -14 -2 -9 9 5 11 2 7 -8 -3 -9 -10 -16 -16 -16 -5 0 -6 -6 -2 -12 5
-9 2 -9 -9 1 -14 11 -17 11 -17 0 0 -9 -3 -10 -8 -3 -4 6 -38 10 -82 10 -41
-1 -81 3 -87 7 -8 6 -13 6 -13 0 0 -15 -111 -7 -121 8 -6 10 -9 10 -9 2 0 -7
-11 -1 -25 13 -14 14 -29 23 -34 20 -5 -3 -11 1 -15 9 -3 9 -12 12 -22 8 -13
-5 -15 -3 -9 8 8 12 6 12 -8 0 -13 -10 -17 -10 -17 -1 0 10 -3 10 -15 0 -10
-9 -19 -9 -27 -2 -7 6 -26 12 -43 14 -25 2 -30 8 -32 33 -3 37 -33 95 -50 95
-7 0 -13 7 -13 16 0 8 -4 13 -9 9 -6 -3 -16 1 -23 9 -9 9 -20 11 -36 5 -15 -6
-21 -5 -17 1 4 6 -4 9 -17 7 -14 -1 -22 3 -20 11 1 6 -2 12 -8 12 -5 0 -10 9
-10 19 0 11 -4 23 -10 26 -5 3 -10 15 -10 26 0 10 -4 19 -10 19 -5 0 -9 3 -9
8 4 23 -4 32 -26 32 -22 0 -24 -3 -16 -19z"/>
</g>
</svg>
